<svg width="34" height="20" viewBox="0 0 34 20" fill="none" xmlns="http://www.w3.org/2000/svg">
<rect width="33.3333" height="20" rx="3.33333" fill="#016FD0"/>
<path d="M8.49768 14.6489V10.4727H12.9196L13.394 11.0911L13.8841 10.4727H29.9344V14.3609C29.9344 14.3609 29.5146 14.6447 29.0292 14.6489H20.1418L19.6069 13.9906V14.6489H17.8541V13.5251C17.8541 13.5251 17.6147 13.682 17.0971 13.682H16.5004V14.6489H13.8466L13.3728 14.0172L12.8918 14.6489H8.49768Z" fill="white"/>
<path d="M3.33325 7.32495L4.3304 5.00024H6.05487L6.62076 6.30245V5.00024H8.76443L9.10131 5.94144L9.4279 5.00024H19.0508V5.47341C19.0508 5.47341 19.5566 5.00024 20.388 5.00024L23.5103 5.01116L24.0664 6.29632V5.00024H25.8603L26.3541 5.73847V5.00024H28.1645V9.17649H26.3541L25.8809 8.43588V9.17649H23.2452L22.9801 8.51816H22.2716L22.0108 9.17649H20.2234C19.508 9.17649 19.0508 8.71298 19.0508 8.71298V9.17649H16.3557L15.8209 8.51816V9.17649H5.7994L5.53453 8.51816H4.82822L4.56522 9.17649H3.33325V7.32495Z" fill="white"/>
<path d="M4.68307 5.51514L3.33813 8.64218H4.21376L4.46192 8.016H5.90457L6.15145 8.64218H7.04636L5.7027 5.51514H4.68307ZM5.18067 6.24289L5.62041 7.33711H4.73965L5.18067 6.24289Z" fill="#016FD0"/>
<path d="M7.13867 8.64145V5.5144L8.38298 5.51903L9.10672 7.53515L9.81312 5.5144H11.0475V8.64145H10.2657V6.33731L9.43703 8.64145H8.75143L7.92043 6.33731V8.64145H7.13867Z" fill="#016FD0"/>
<path d="M11.5836 8.64145V5.5144H14.1346V6.21388H12.3736V6.74876H14.0935V7.40709H12.3736V7.96255H14.1346V8.64145H11.5836Z" fill="#016FD0"/>
<path d="M14.5865 5.51514V8.64218H15.3683V7.53126H15.6975L16.6348 8.64218H17.5902L16.5615 7.49011C16.9837 7.45449 17.4191 7.09216 17.4191 6.52963C17.4191 5.87159 16.9027 5.51514 16.3262 5.51514H14.5865ZM15.3683 6.21461H16.2619C16.4763 6.21461 16.6322 6.38229 16.6322 6.54377C16.6322 6.75152 16.4302 6.87293 16.2735 6.87293H15.3683V6.21461Z" fill="#016FD0"/>
<path d="M18.5359 8.64145H17.7377V5.5144H18.5359V8.64145Z" fill="#016FD0"/>
<path d="M20.4297 8.64145H20.2574C19.4238 8.64145 18.9176 7.98467 18.9176 7.09078C18.9176 6.17482 19.4181 5.5144 20.4708 5.5144H21.3349V6.25502H20.4392C20.0119 6.25502 19.7097 6.58853 19.7097 7.0985C19.7097 7.70409 20.0552 7.95844 20.5531 7.95844H20.7589L20.4297 8.64145Z" fill="#016FD0"/>
<path d="M22.1309 5.51514L20.786 8.64218H21.6616L21.9098 8.016H23.3524L23.5993 8.64218H24.4942L23.1506 5.51514H22.1309ZM22.6285 6.24289L23.0683 7.33711H22.1875L22.6285 6.24289Z" fill="#016FD0"/>
<path d="M24.5848 8.64169V5.51465H25.5788L26.8478 7.47934V5.51465H27.6296V8.64169H26.6678L25.3666 6.62557V8.64169H24.5848Z" fill="#016FD0"/>
<path d="M9.03149 14.1139V10.9868H11.5825V11.6863H9.82148V12.2212H11.5414V12.8795H9.82148V13.435H11.5825V14.1139H9.03149Z" fill="#016FD0"/>
<path d="M21.5316 14.1139V10.9868H24.0826V11.6863H22.3216V12.2212H24.0333V12.8795H22.3216V13.435H24.0826V14.1139H21.5316Z" fill="#016FD0"/>
<path d="M11.6816 14.1139L12.9236 12.5696L11.652 10.9868H12.6369L13.3942 11.9653L14.1541 10.9868H15.1005L13.8455 12.5503L15.0899 14.1139H14.1051L13.3698 13.1508L12.6523 14.1139H11.6816Z" fill="#016FD0"/>
<path d="M15.1838 10.9873V14.1143H15.9862V13.1269H16.8091C17.5054 13.1269 18.0332 12.7575 18.0332 12.0391C18.0332 11.444 17.6192 10.9873 16.9107 10.9873H15.1838ZM15.9862 11.6945H16.8528C17.0777 11.6945 17.2385 11.8324 17.2385 12.0545C17.2385 12.2632 17.0786 12.4145 16.8502 12.4145H15.9862V11.6945Z" fill="#016FD0"/>
<path d="M18.3724 10.9868V14.1139H19.1542V13.0029H19.4834L20.4207 14.1139H21.376L20.3474 12.9618C20.7696 12.9262 21.205 12.5638 21.205 12.0013C21.205 11.3433 20.6885 10.9868 20.1121 10.9868H18.3724ZM19.1542 11.6863H20.0478C20.2622 11.6863 20.4181 11.854 20.4181 12.0154C20.4181 12.2232 20.2161 12.3446 20.0594 12.3446H19.1542V11.6863Z" fill="#016FD0"/>
<path d="M24.4448 14.1139V13.435H26.0094C26.2409 13.435 26.3411 13.3099 26.3411 13.1727C26.3411 13.0412 26.2412 12.9083 26.0094 12.9083H25.3024C24.6878 12.9083 24.3456 12.5339 24.3456 11.9717C24.3456 11.4703 24.659 10.9868 25.5722 10.9868H27.0946L26.7654 11.6904H25.4488C25.1971 11.6904 25.1196 11.8225 25.1196 11.9486C25.1196 12.0782 25.2154 12.2212 25.4076 12.2212H26.1483C26.8333 12.2212 27.1306 12.6098 27.1306 13.1187C27.1306 13.6658 26.7993 14.1139 26.111 14.1139H24.4448Z" fill="#016FD0"/>
<path d="M27.3142 14.1139V13.435H28.8788C29.1103 13.435 29.2105 13.3099 29.2105 13.1727C29.2105 13.0412 29.1106 12.9083 28.8788 12.9083H28.1718C27.5572 12.9083 27.215 12.5339 27.215 11.9717C27.215 11.4703 27.5284 10.9868 28.4416 10.9868H29.964L29.6348 11.6904H28.3182C28.0665 11.6904 27.989 11.8225 27.989 11.9486C27.989 12.0782 28.0848 12.2212 28.277 12.2212H29.0176C29.7027 12.2212 30 12.6098 30 13.1187C30 13.6658 29.6687 14.1139 28.9804 14.1139H27.3142Z" fill="#016FD0"/>
</svg>
