<svg width="34" height="20" viewBox="0 0 34 20" fill="none" xmlns="http://www.w3.org/2000/svg">
<rect width="33.3333" height="20" rx="3.33333" fill="white"/>
<path d="M8.20862 5.57821C7.89612 5.948 7.39612 6.23966 6.89612 6.198C6.83362 5.698 7.07841 5.16675 7.36487 4.83862C7.67737 4.45841 8.22424 4.18758 8.66695 4.16675C8.71903 4.68758 8.51591 5.198 8.20862 5.57821ZM8.66174 6.29696C7.93778 6.25529 7.31799 6.70841 6.97424 6.70841C6.62528 6.70841 6.09924 6.31779 5.52632 6.32821C4.78153 6.33862 4.08882 6.7605 3.70862 7.43237C2.92737 8.77612 3.50549 10.7657 4.2607 11.8595C4.63049 12.4011 5.0732 12.9949 5.65653 12.974C6.20862 12.9532 6.42737 12.6147 7.09403 12.6147C7.76591 12.6147 7.95862 12.974 8.54195 12.9636C9.14612 12.9532 9.52632 12.422 9.89612 11.8803C10.318 11.2657 10.4899 10.6667 10.5003 10.6355C10.4899 10.6251 9.33362 10.1824 9.3232 8.84904C9.31278 7.73446 10.2347 7.20321 10.2763 7.17196C9.75549 6.40112 8.94299 6.31779 8.66174 6.29696ZM12.844 4.78654V12.9063H14.1044V10.1303H15.8492C17.443 10.1303 18.5628 9.03654 18.5628 7.45321C18.5628 5.86987 17.4638 4.78654 15.8909 4.78654H12.844ZM14.1044 5.84904H15.5576C16.6513 5.84904 17.2763 6.43237 17.2763 7.45841C17.2763 8.48446 16.6513 9.073 15.5524 9.073H14.1044V5.84904ZM20.8649 12.9688C21.6565 12.9688 22.3909 12.5678 22.7242 11.9324H22.7503V12.9063H23.917V8.86466C23.917 7.69279 22.9795 6.93758 21.5367 6.93758C20.1982 6.93758 19.2086 7.70321 19.1722 8.75529H20.3076C20.4013 8.25529 20.8649 7.92716 21.5003 7.92716C22.2711 7.92716 22.7034 8.28654 22.7034 8.948V9.39592L21.1305 9.48967C19.667 9.57821 18.8753 10.1772 18.8753 11.2188C18.8753 12.2709 19.693 12.9688 20.8649 12.9688ZM21.2034 12.0053C20.5315 12.0053 20.1044 11.6824 20.1044 11.1876C20.1044 10.6772 20.5159 10.3803 21.3024 10.3334L22.7034 10.2449V10.7032C22.7034 11.4636 22.0576 12.0053 21.2034 12.0053ZM25.4742 15.1147C26.7034 15.1147 27.2815 14.6459 27.7867 13.224L30.0003 7.01571H28.719L27.2347 11.8126H27.2086L25.7242 7.01571H24.4065L26.542 12.9272L26.4274 13.2865C26.2347 13.8959 25.9222 14.1303 25.3649 14.1303C25.2659 14.1303 25.0732 14.1199 24.9951 14.1095V15.0834C25.068 15.1042 25.3805 15.1147 25.4742 15.1147Z" fill="black"/>
</svg>
