<svg width="34" height="20" viewBox="0 0 34 20" fill="none" xmlns="http://www.w3.org/2000/svg">
<rect width="33.3333" height="20" rx="3.33333" fill="white"/>
<path d="M20.2729 3.43115H13.0631V16.3859H20.2729V3.43115Z" fill="#FF5F00"/>
<path d="M13.5204 9.90841C13.5204 7.39071 14.6877 4.98744 16.6561 3.43105C13.0855 0.615795 7.9128 1.23378 5.09755 4.82723C2.2823 8.39779 2.90028 13.5705 6.49373 16.3858C9.49208 18.7433 13.6806 18.7433 16.679 16.3858C14.6877 14.8294 13.5204 12.4261 13.5204 9.90841Z" fill="#EB001B"/>
<path d="M30.0005 9.90841C30.0005 14.4632 26.3155 18.1482 21.7607 18.1482C19.9068 18.1482 18.1215 17.5302 16.6796 16.3858C20.2501 13.5705 20.8681 8.39779 18.0529 4.80434C17.6409 4.3008 17.1831 3.82014 16.6796 3.43105C20.2501 0.615796 25.4458 1.23378 28.2381 4.82723C29.3825 6.26918 30.0005 8.05446 30.0005 9.90841Z" fill="#F79E1B"/>
<path d="M29.221 15.0131V14.7384H29.3354V14.6926H29.0608V14.7384H29.1752V15.0131H29.221ZM29.7474 15.0131V14.6926H29.6559L29.5643 14.9215L29.4728 14.6926H29.3812V15.0131H29.4499V14.7613L29.5414 14.9673H29.6101L29.7017 14.7613V15.0131H29.7474Z" fill="#F79E1B"/>
</svg>
