<svg width="34" height="20" viewBox="0 0 34 20" fill="none" xmlns="http://www.w3.org/2000/svg">
<rect width="33.3333" height="20" rx="3.33333" fill="white"/>
<path d="M21.1653 11.4307H22.4473C22.4838 11.4307 22.5705 11.4184 22.6059 11.4184C22.7365 11.3904 22.8533 11.3176 22.9358 11.2125C23.0184 11.1074 23.0616 10.9768 23.0578 10.8432C23.0578 10.7105 23.0133 10.5817 22.9313 10.4774C22.8494 10.3731 22.7347 10.2993 22.6059 10.2679C22.5537 10.2572 22.5004 10.2531 22.4473 10.2556H21.1653V11.4307Z" fill="url(#paint0_linear_311_3857)"/>
<path d="M22.3015 3.33691C21.7122 3.33702 21.147 3.57117 20.7303 3.98787C20.3136 4.40457 20.0795 4.9697 20.0794 5.559V7.86696H23.2173C23.2908 7.86465 23.3644 7.86864 23.4372 7.87888C24.1455 7.91586 24.6698 8.28196 24.6698 8.91678C24.6698 9.41765 24.3161 9.84498 23.6566 9.93044V9.95469C24.3769 10.0036 24.9262 10.4067 24.9262 11.0292C24.9262 11.701 24.3161 12.1386 23.5099 12.1386H20.0667V16.6583H23.3271C23.9164 16.6582 24.4815 16.4241 24.8982 16.0074C25.3149 15.5907 25.549 15.0255 25.5491 14.4362V3.33691H22.3015Z" fill="url(#paint1_linear_311_3857)"/>
<path d="M22.8992 9.06283C22.9016 8.93505 22.8569 8.81085 22.7735 8.71399C22.6901 8.61712 22.574 8.55437 22.4473 8.53772C22.423 8.53772 22.3618 8.52539 22.324 8.52539H21.1653V9.59986H22.3252C22.3618 9.59986 22.4349 9.59986 22.4485 9.58795C22.5749 9.57094 22.6907 9.50804 22.7739 9.41122C22.857 9.3144 22.9016 9.19041 22.8992 9.06283Z" fill="url(#paint2_linear_311_3857)"/>
<path d="M10.0176 3.33667C9.42828 3.33667 8.86309 3.57078 8.44636 3.9875C8.02964 4.40423 7.79553 4.96942 7.79553 5.55876V11.0412C8.41803 11.3465 9.06518 11.5417 9.71232 11.5417C10.4815 11.5417 10.8969 11.0778 10.8969 10.443V7.85644H12.8014V10.4327C12.8014 11.4341 12.1789 12.2521 10.0665 12.2521C9.29667 12.2519 8.52978 12.1569 7.7832 11.969L7.7832 16.6458H11.0432C11.6326 16.6458 12.1979 16.4116 12.6147 15.9948C13.0315 15.578 13.2657 15.0127 13.2657 14.4233V3.33667H10.0176Z" fill="url(#paint3_linear_311_3857)"/>
<path d="M16.1591 3.33691C15.5698 3.33702 15.0047 3.57117 14.588 3.98787C14.1713 4.40457 13.9371 4.9697 13.937 5.559V8.46521C14.4987 7.98899 15.4754 7.68453 17.0507 7.75684C17.893 7.79341 18.7966 8.02556 18.7966 8.02556V8.96609C18.3446 8.73435 17.8076 8.52644 17.1119 8.47754C15.9154 8.39208 15.1952 8.97841 15.1952 10.004C15.1952 11.0419 15.9154 11.6278 17.1119 11.53C17.808 11.4815 18.3446 11.2617 18.7966 11.0419V11.982C18.7966 11.982 17.9054 12.2142 17.0507 12.2507C15.4754 12.3239 14.4987 12.0186 13.937 11.5424V16.6702H17.197C17.7863 16.6702 18.3515 16.4361 18.7683 16.0194C19.185 15.6027 19.4191 15.0375 19.4191 14.4482V3.33691H16.1591Z" fill="url(#paint4_linear_311_3857)"/>
<defs>
<linearGradient id="paint0_linear_311_3857" x1="20.0817" y1="10.8368" x2="25.5703" y2="10.8368" gradientUnits="userSpaceOnUse">
<stop stop-color="#007940"/>
<stop offset="0.23" stop-color="#00873F"/>
<stop offset="0.74" stop-color="#40A737"/>
<stop offset="1" stop-color="#5CB531"/>
</linearGradient>
<linearGradient id="paint1_linear_311_3857" x1="20.0818" y1="9.98838" x2="25.5662" y2="9.98838" gradientUnits="userSpaceOnUse">
<stop stop-color="#007940"/>
<stop offset="0.23" stop-color="#00873F"/>
<stop offset="0.74" stop-color="#40A737"/>
<stop offset="1" stop-color="#5CB531"/>
</linearGradient>
<linearGradient id="paint2_linear_311_3857" x1="20.0809" y1="9.05361" x2="25.5703" y2="9.05361" gradientUnits="userSpaceOnUse">
<stop stop-color="#007940"/>
<stop offset="0.23" stop-color="#00873F"/>
<stop offset="0.74" stop-color="#40A737"/>
<stop offset="1" stop-color="#5CB531"/>
</linearGradient>
<linearGradient id="paint3_linear_311_3857" x1="7.79327" y1="9.98224" x2="13.3669" y2="9.98224" gradientUnits="userSpaceOnUse">
<stop stop-color="#1F286F"/>
<stop offset="0.48" stop-color="#004E94"/>
<stop offset="0.83" stop-color="#0066B1"/>
<stop offset="1" stop-color="#006FBC"/>
</linearGradient>
<linearGradient id="paint4_linear_311_3857" x1="13.9076" y1="9.99427" x2="19.3212" y2="9.99427" gradientUnits="userSpaceOnUse">
<stop stop-color="#6C2C2F"/>
<stop offset="0.17" stop-color="#882730"/>
<stop offset="0.57" stop-color="#BE1833"/>
<stop offset="0.86" stop-color="#DC0436"/>
<stop offset="1" stop-color="#E60039"/>
</linearGradient>
</defs>
</svg>
