<svg width="20" height="20" viewBox="0 0 20 20" fill="none" xmlns="http://www.w3.org/2000/svg">
<rect width="20" height="20" rx="3.33333" fill="white"/>
<path d="M13.6024 6.3813L13.5288 6.37245C13.1065 6.17319 12.6447 6.07185 12.1815 6.02511L8.21004 6.02683L7.58474 9.99537L7.55817 10.0067C7.38869 11.3429 7.18378 12.6771 6.93164 14.0003L6.92303 14.0249H4.18247L4.16721 14.0003C4.1682 13.9843 4.16549 13.9671 4.16721 13.9511C4.17435 13.8852 4.21248 13.7942 4.2142 13.7219L5.82592 3.33399L10.5499 3.33325C12.2145 3.44026 13.6112 4.64757 13.6024 6.3813Z" fill="#002991"/>
<path d="M13.6024 6.38135C14.795 6.99189 15.4323 8.28973 15.1691 9.61364C14.8117 11.4113 13.2664 12.6093 11.4591 12.6735C10.9354 12.6922 10.4058 12.657 9.88157 12.6747L9.24101 16.6666H6.48914C6.49602 16.4406 6.53366 16.218 6.57277 15.9956C6.67707 15.3285 6.78727 14.6591 6.93142 14.0001C7.14519 12.6701 7.34911 11.3373 7.55796 10.0065L7.56657 9.98189L9.8582 9.98238C11.7538 9.95778 13.5163 8.37533 13.5766 6.44875L13.6022 6.38159L13.6024 6.38135Z" fill="#60CDFF"/>
<path d="M13.6028 6.38128C13.5925 8.35018 11.7621 10.0086 9.82563 10.0067L7.55859 10.0062L8.18685 6.00196L12.1839 6.00049C12.6592 6.04673 13.1782 6.16383 13.603 6.38128H13.6028Z" fill="#008CFF"/>
</svg>
