<svg width="34" height="20" viewBox="0 0 34 20" fill="none" xmlns="http://www.w3.org/2000/svg">
<rect width="33.3333" height="20" rx="3.33333" fill="white"/>
<path d="M10.0034 3.3335H15.3183C16.0602 3.3335 16.5216 3.93822 16.3485 4.68259L13.8741 15.3064C13.6994 16.0482 12.9566 16.6534 12.2142 16.6534H6.89984C6.15896 16.6534 5.69648 16.0482 5.86956 15.3064L8.34505 4.68259C8.51813 3.93822 9.26055 3.3335 10.0034 3.3335Z" fill="#E21836"/>
<path d="M14.8758 3.3335H20.9878C21.7296 3.3335 21.3951 3.93822 21.2206 4.68259L18.7465 15.3064C18.573 16.0482 18.6271 16.6534 17.8838 16.6534H11.7718C11.0285 16.6534 10.5684 16.0482 10.7431 15.3064L13.217 4.68259C13.3927 3.93822 14.1335 3.3335 14.8758 3.3335Z" fill="#00447C"/>
<path d="M20.745 3.3335H26.0599C26.8028 3.3335 27.2642 3.93822 27.0897 4.68259L24.6157 15.3064C24.4411 16.0482 23.6977 16.6534 22.9549 16.6534H17.6425C16.8991 16.6534 16.4381 16.0482 16.6122 15.3064L19.0867 4.68259C19.2597 3.93822 20.0016 3.3335 20.745 3.3335Z" fill="#007B84"/>
<path d="M11.3913 6.73824C10.8447 6.74381 10.6833 6.73824 10.6318 6.72606C10.612 6.82024 10.2431 8.52157 10.2421 8.52299C10.1627 8.8672 10.1049 9.11256 9.90865 9.27099C9.79724 9.3631 9.66717 9.40753 9.51638 9.40753C9.274 9.40753 9.1328 9.28719 9.10909 9.05893L9.10456 8.98055C9.10456 8.98055 9.1784 8.5195 9.1784 8.51691C9.1784 8.51691 9.56548 6.9665 9.63479 6.76156C9.63841 6.7499 9.63945 6.74381 9.64036 6.73824C8.88692 6.74485 8.75336 6.73824 8.74416 6.72606C8.73911 6.74277 8.72045 6.8389 8.72045 6.8389L8.32521 8.58634L8.29127 8.73454L8.22559 9.2193C8.22559 9.3631 8.25383 9.48047 8.31005 9.5797C8.49012 9.89437 9.00377 9.94152 9.29434 9.94152C9.66873 9.94152 10.0199 9.86198 10.2573 9.71676C10.6692 9.47334 10.777 9.09287 10.8731 8.75475L10.9177 8.58129C10.9177 8.58129 11.3164 6.97103 11.3842 6.76156C11.3868 6.7499 11.3878 6.74381 11.3913 6.73824ZM12.748 8.03725C12.6519 8.03725 12.4762 8.06057 12.3184 8.13791C12.2612 8.16731 12.207 8.20125 12.1499 8.23507L12.2014 8.04891L12.1732 8.01756C11.8386 8.08531 11.7637 8.09438 11.4546 8.13791L11.4287 8.15514C11.3928 8.4527 11.3609 8.67643 11.2279 9.26133C11.1773 9.47689 11.1247 9.69453 11.0719 9.90958L11.0862 9.93691C11.4029 9.9202 11.499 9.9202 11.7743 9.92473L11.7966 9.90051C11.8316 9.72135 11.8361 9.67937 11.9136 9.31652C11.95 9.14448 12.0259 8.76646 12.0633 8.63187C12.1321 8.6 12.2 8.56865 12.2648 8.56865C12.4191 8.56865 12.4003 8.70325 12.3943 8.75688C12.3877 8.84691 12.3315 9.14098 12.2739 9.39347L12.2354 9.55644C12.2086 9.67678 12.1792 9.79376 12.1523 9.91307L12.164 9.93691C12.4762 9.9202 12.5714 9.9202 12.838 9.92473L12.8694 9.90051C12.9176 9.62069 12.9317 9.54581 13.0172 9.13839L13.0602 8.9512C13.1438 8.58484 13.1857 8.39907 13.1225 8.24776C13.0557 8.07819 12.8953 8.03725 12.748 8.03725ZM14.2636 8.42082C14.0976 8.45269 13.9918 8.47394 13.8866 8.48767C13.7823 8.50438 13.6806 8.51954 13.5202 8.54182L13.5075 8.55335L13.4959 8.56255C13.4792 8.68199 13.4675 8.78524 13.4454 8.90662C13.4266 9.03215 13.3977 9.17478 13.3507 9.37972C13.3143 9.5366 13.2955 9.59127 13.2748 9.64646C13.2545 9.70164 13.2323 9.75528 13.1913 9.90956L13.2009 9.92381L13.2089 9.9369C13.3588 9.92977 13.4569 9.92472 13.5577 9.92381C13.6583 9.92019 13.7626 9.92381 13.924 9.92472L13.9382 9.91319L13.9533 9.9005C13.9766 9.76136 13.9801 9.72393 13.9944 9.65604C14.0085 9.58324 14.0329 9.48245 14.0926 9.21325C14.1208 9.08682 14.1523 8.96077 14.1816 8.83174C14.212 8.70323 14.2439 8.57667 14.2742 8.45023L14.2697 8.43494L14.2636 8.42082ZM14.2671 7.90365C14.1163 7.81465 13.8517 7.84289 13.6735 7.96583C13.4959 8.08631 13.4757 8.25731 13.626 8.34747C13.7742 8.43401 14.0399 8.40823 14.2165 8.28425C14.3937 8.16119 14.4158 7.99174 14.2671 7.90365ZM15.1791 9.96479C15.4841 9.96479 15.7969 9.88071 16.0322 9.63121C16.2133 9.42886 16.2964 9.12779 16.3251 9.00382C16.4188 8.5929 16.3459 8.40104 16.2543 8.28419C16.1152 8.10606 15.8693 8.04893 15.6142 8.04893C15.4608 8.04893 15.0955 8.06409 14.8101 8.3272C14.6052 8.51698 14.5105 8.77452 14.4533 9.02144C14.3957 9.27301 14.3294 9.72591 14.7459 9.89445C14.8744 9.94963 15.0596 9.96479 15.1791 9.96479ZM15.1552 9.04022C15.2256 8.72905 15.3086 8.46789 15.5205 8.46789C15.6866 8.46789 15.6987 8.6622 15.6248 8.97441C15.6116 9.04372 15.551 9.30138 15.469 9.41111C15.4117 9.49208 15.344 9.54117 15.2691 9.54117C15.2468 9.54117 15.1143 9.54117 15.1122 9.34439C15.1112 9.24724 15.131 9.148 15.1552 9.04022ZM17.0878 9.92477L17.1116 9.90055C17.1454 9.72139 17.151 9.67928 17.2259 9.31655C17.2633 9.14452 17.3408 8.7665 17.3772 8.6319C17.4461 8.59991 17.5128 8.56856 17.5797 8.56856C17.7329 8.56856 17.7143 8.70315 17.7082 8.75679C17.7026 8.84695 17.6464 9.14089 17.5877 9.39338L17.5513 9.55634C17.5234 9.67682 17.4931 9.79367 17.4663 9.91311L17.478 9.93695C17.7912 9.92024 17.8828 9.92024 18.151 9.92477L18.1834 9.90055C18.2304 9.6206 18.2431 9.54572 18.3312 9.13843L18.3731 8.95111C18.4571 8.58475 18.4996 8.39911 18.4374 8.2478C18.3686 8.07822 18.2072 8.03729 18.062 8.03729C17.9657 8.03729 17.7891 8.06048 17.6323 8.13795C17.5762 8.16735 17.52 8.20116 17.4648 8.23511L17.5128 8.04895L17.487 8.01747C17.1526 8.08535 17.0761 8.09442 16.7674 8.13795L16.7437 8.15518C16.7063 8.45274 16.6758 8.67634 16.5428 9.26137C16.4921 9.47693 16.4395 9.69457 16.3869 9.90962L16.4011 9.93695C16.7183 9.92024 16.813 9.92024 17.0878 9.92477ZM19.3892 9.93689C19.4089 9.84076 19.5259 9.27102 19.5269 9.27102C19.5269 9.27102 19.6266 8.85297 19.6327 8.83782C19.6327 8.83782 19.664 8.79429 19.6954 8.77706H19.7415C20.1766 8.77706 20.668 8.77706 21.0531 8.49374C21.3152 8.29942 21.4944 8.01248 21.5743 7.66374C21.595 7.57824 21.6103 7.47655 21.6103 7.37486C21.6103 7.24129 21.5835 7.10916 21.506 7.00591C21.3096 6.73114 20.9185 6.72609 20.4671 6.72402C20.4656 6.72402 20.2445 6.72609 20.2445 6.72609C19.6666 6.73321 19.4348 6.73114 19.3396 6.71948C19.3316 6.76158 19.3164 6.83646 19.3164 6.83646C19.3164 6.83646 19.1094 7.79588 19.1094 7.79743C19.1094 7.79743 18.614 9.83726 18.5907 9.93339C19.0953 9.9273 19.3022 9.9273 19.3892 9.93689ZM19.7728 8.23258C19.7728 8.23258 19.9929 7.2751 19.9919 7.27873L19.999 7.22963L20.0021 7.1922L20.0901 7.20126C20.0901 7.20126 20.544 7.24026 20.5546 7.24129C20.7338 7.3106 20.8076 7.48924 20.7561 7.72243C20.709 7.93553 20.5708 8.11469 20.3932 8.20123C20.247 8.27455 20.0678 8.28064 19.8832 8.28064H19.7638L19.7728 8.23258ZM21.1432 9.05796C21.085 9.30591 21.0182 9.7588 21.4326 9.92021C21.5648 9.97644 21.6832 9.99315 21.8035 9.98706C21.9306 9.98019 22.0483 9.91646 22.1574 9.82474C22.1476 9.86244 22.1377 9.90013 22.1279 9.93796L22.1467 9.96219C22.4448 9.94962 22.5373 9.94962 22.8602 9.95208L22.8895 9.9298C22.9366 9.65257 22.9811 9.38337 23.1036 8.85301C23.1633 8.59897 23.2229 8.3474 23.2842 8.09439L23.2746 8.06654C22.9412 8.12833 22.852 8.14155 22.5313 8.18702L22.5069 8.20684C22.5037 8.23262 22.5003 8.25736 22.4972 8.2821C22.4473 8.20153 22.3751 8.13274 22.2635 8.08986C22.1209 8.03376 21.7859 8.10605 21.4979 8.36825C21.2956 8.55545 21.1984 8.81195 21.1432 9.05796ZM21.8435 9.07311C21.9149 8.76751 21.9969 8.50894 22.2094 8.50894C22.3437 8.50894 22.4144 8.63292 22.4001 8.84433C22.3887 8.89706 22.3764 8.95263 22.3617 9.01546C22.3405 9.10628 22.3174 9.19631 22.295 9.28647C22.2722 9.34814 22.2456 9.4063 22.2165 9.44504C22.1618 9.52251 22.0318 9.57057 21.9569 9.57057C21.9356 9.57057 21.8045 9.57057 21.8 9.37729C21.799 9.28103 21.8188 9.18193 21.8435 9.07311ZM25.5007 8.06407L25.4749 8.03466C25.1449 8.1015 25.0852 8.11213 24.7821 8.15306L24.7598 8.17535C24.7588 8.17897 24.7579 8.18454 24.7563 8.1896L24.7553 8.18454C24.5296 8.70519 24.5362 8.59287 24.3525 9.00276C24.3515 8.9841 24.3515 8.97244 24.3504 8.95262L24.3045 8.06407L24.2756 8.03466C23.9299 8.1015 23.9218 8.11213 23.6026 8.15306L23.5777 8.17535C23.5742 8.18597 23.5742 8.19763 23.5721 8.21032L23.5742 8.21486C23.6141 8.41876 23.6045 8.37329 23.6445 8.69508C23.6632 8.853 23.6881 9.01182 23.7067 9.1678C23.7382 9.42883 23.7558 9.55734 23.7943 9.9557C23.5787 10.3114 23.5277 10.446 23.3202 10.7582L23.3216 10.7613L23.1755 10.9925C23.1587 11.0168 23.1436 11.0335 23.1223 11.0406C23.099 11.0522 23.0687 11.0542 23.0266 11.0542H22.9456L22.8253 11.4545L23.2382 11.4617C23.4805 11.4606 23.6329 11.3473 23.7149 11.1949L23.9745 10.7501H23.9704L23.9977 10.7187C24.1723 10.3428 25.5007 8.06407 25.5007 8.06407ZM21.1432 13.3214H20.968L21.6163 11.1772H21.8313L21.8996 10.9564L21.9062 11.202C21.8982 11.3538 22.0176 11.4884 22.3314 11.4661H22.6942L22.8191 11.0533H22.6826C22.6041 11.0533 22.5677 11.0335 22.5722 10.991L22.5656 10.7411H21.8937V10.7424C21.6764 10.7469 21.0276 10.7632 20.8963 10.7982C20.7373 10.8391 20.5698 10.9596 20.5698 10.9596L20.6356 10.7385H20.0071L19.8761 11.1772L19.2192 13.3541H19.0917L18.9667 13.764H20.2186L20.1767 13.9007H20.7936L20.8345 13.764H21.0076L21.1432 13.3214ZM20.6295 11.6129C20.5289 11.6408 20.3416 11.7252 20.3416 11.7252L20.5082 11.1772H21.0076L20.8871 11.5765C20.8871 11.5765 20.7328 11.5856 20.6295 11.6129ZM20.6391 12.3958C20.6391 12.3958 20.4823 12.4154 20.379 12.4388C20.2773 12.4696 20.0866 12.5668 20.0866 12.5668L20.2587 11.9965H20.7606L20.6391 12.3958ZM20.3593 13.3264H19.8584L20.0036 12.8452H20.503L20.3593 13.3264ZM21.5657 11.9965H22.2878L22.184 12.3325H21.4524L21.3425 12.6999H21.9827L21.498 13.3825C21.464 13.4326 21.4336 13.4504 21.3998 13.4645C21.3658 13.4817 21.3213 13.502 21.2697 13.502H21.0921L20.9701 13.9043H21.4346C21.6761 13.9043 21.8187 13.7945 21.924 13.6503L22.2565 13.1953L22.3278 13.6573C22.343 13.7438 22.4052 13.7945 22.4473 13.8142C22.4938 13.8375 22.5419 13.8775 22.6097 13.8835C22.6825 13.8866 22.7351 13.889 22.7701 13.889H22.9984L23.1354 13.4387H23.0454C22.9937 13.4387 22.9047 13.4301 22.8896 13.4139C22.8744 13.3942 22.8744 13.3639 22.8662 13.3177L22.7938 12.8547H22.4973L22.6274 12.6999H23.3576L23.4699 12.3325H22.7938L22.8991 11.9965H23.5732L23.6982 11.5821H21.6887L21.5657 11.9965ZM15.4669 13.42L15.6355 12.8593H16.3282L16.4547 12.4423H15.7614L15.8672 12.0972H16.5448L16.6703 11.6934H14.975L14.8521 12.0972H15.2372L15.1345 12.4423H14.7483L14.6203 12.8664H15.0054L14.7807 13.6082C14.7504 13.7064 14.795 13.7439 14.8232 13.7895C14.8521 13.8339 14.8814 13.8633 14.9472 13.88C15.0151 13.8952 15.0616 13.9042 15.1248 13.9042H15.9057L16.0448 13.4423L15.6987 13.4898C15.6318 13.4898 15.4467 13.4818 15.4669 13.42ZM15.5464 10.736L15.3708 11.0532C15.3333 11.1225 15.2995 11.1655 15.269 11.1853C15.2422 11.2021 15.1891 11.2091 15.1121 11.2091H15.0206L14.8981 11.6149H15.2023C15.3486 11.6149 15.4609 11.5613 15.5145 11.5345C15.5722 11.5036 15.5873 11.5213 15.6319 11.4782L15.7346 11.3893H16.6844L16.8105 10.9667H16.1152L16.2366 10.736H15.5464ZM16.9486 13.4281C16.9324 13.4048 16.9441 13.3638 16.9688 13.2783L17.2285 12.419H18.152C18.2866 12.417 18.3837 12.4155 18.447 12.4109C18.5149 12.4038 18.5887 12.3796 18.6691 12.3361C18.7522 12.2905 18.7947 12.2424 18.8306 12.1872C18.8706 12.1322 18.9348 12.0117 18.99 11.8259L19.3164 10.7385L18.358 10.7441C18.358 10.7441 18.0629 10.7876 17.9329 10.8357C17.8018 10.8893 17.6145 11.039 17.6145 11.039L17.701 10.741H17.109L16.2802 13.4898C16.2508 13.5965 16.2311 13.674 16.2266 13.7205C16.225 13.7707 16.2898 13.8203 16.3317 13.8577C16.3814 13.8951 16.4547 13.8891 16.525 13.8951C16.599 13.9007 16.7042 13.9042 16.8494 13.9042H17.3044L17.444 13.4327L17.0367 13.4711C16.9932 13.4711 16.9617 13.4478 16.9486 13.4281ZM17.396 11.8386H18.366L18.3043 12.0319C18.2957 12.0364 18.2749 12.0223 18.1762 12.034H17.3362L17.396 11.8386ZM17.5903 11.1904H18.5685L18.4981 11.4232C18.4981 11.4232 18.0371 11.4186 17.9632 11.4322C17.6383 11.4884 17.4486 11.662 17.4486 11.662L17.5903 11.1904ZM18.3261 12.6791C18.318 12.708 18.3053 12.7256 18.2876 12.7389C18.2679 12.7516 18.236 12.7561 18.1885 12.7561H18.0502L18.0584 12.5207H17.4835L17.4602 13.6715C17.4593 13.7545 17.4673 13.8026 17.528 13.841C17.5888 13.8891 17.776 13.8952 18.028 13.8952H18.3882L18.5183 13.4644L18.2047 13.4817L18.1004 13.4878C18.0861 13.4817 18.0725 13.4761 18.0574 13.461C18.0442 13.4479 18.0219 13.4559 18.0255 13.3729L18.028 13.0779L18.3569 13.0643C18.5345 13.0643 18.6104 13.0065 18.6752 12.9514C18.737 12.8987 18.7572 12.8381 18.7805 12.7561L18.8357 12.4949H18.3837L18.3261 12.6791Z" fill="#FEFEFE"/>
</svg>
