<svg width="34" height="20" viewBox="0 0 34 20" fill="none" xmlns="http://www.w3.org/2000/svg">
<rect width="33.3333" height="20" rx="3.33333" fill="white"/>
<path d="M20.7079 5.8335C18.8169 5.8335 17.1191 6.81964 17.1191 8.62928C17.1191 10.7134 20.1182 10.8557 20.1182 11.8927C20.1182 12.3299 19.6099 12.7264 18.7559 12.7264C17.5359 12.7264 16.621 12.1774 16.621 12.1774L16.2346 14.0073C16.2346 14.0073 17.2818 14.475 18.6848 14.475C20.7587 14.475 22.3854 13.4482 22.3854 11.5979C22.3854 9.40193 19.3761 9.2596 19.3761 8.29378C19.3761 7.94812 19.7929 7.57196 20.6469 7.57196C21.6127 7.57196 22.4057 7.96846 22.4057 7.96846L22.792 6.19949C22.7818 6.19949 21.9177 5.8335 20.7079 5.8335ZM3.38421 5.96566L3.33337 6.22999C3.33337 6.22999 4.12636 6.37232 4.84818 6.66715C5.77333 7.00264 5.83433 7.1958 5.99699 7.79563L7.69479 14.3327H9.97208L13.4592 5.96566H11.1921L8.94527 11.6589L8.03029 6.82981C7.94895 6.28082 7.52196 5.96566 6.99331 5.96566H3.38421ZM14.3742 5.96566L12.595 14.3327H14.7605L16.5295 5.96566H14.3742ZM26.4316 5.96566C25.9131 5.96566 25.6386 6.24016 25.4353 6.72815L22.2634 14.3327H24.5305L24.9676 13.0619H27.7329L27.9972 14.3327H30L28.2616 5.96566H26.4316ZM26.7264 8.23278L27.3974 11.3742H25.598L26.7264 8.23278Z" fill="#1434CB"/>
</svg>
