<svg width="91" height="30" viewBox="0 0 91 30" fill="none" xmlns="http://www.w3.org/2000/svg">
<path d="M-7.51019e-06 28.752V0.384013H9.11999C10.752 0.384013 12.064 0.784013 13.056 1.58401C14.048 2.35201 14.544 3.53601 14.544 5.13601V8.49601C14.544 9.39201 14.416 10.192 14.16 10.896C13.904 11.568 13.552 12.112 13.104 12.528C12.656 12.944 12.128 13.232 11.52 13.392C10.944 13.552 10.432 13.648 9.98399 13.68V13.632C10.592 13.632 11.184 13.712 11.76 13.872C12.336 14 12.832 14.256 13.248 14.64C13.76 15.088 14.16 15.664 14.448 16.368C14.736 17.072 14.88 17.904 14.88 18.864V22.896C14.88 24.496 14.608 25.728 14.064 26.592C13.552 27.424 12.832 28 11.904 28.32C10.976 28.608 9.87199 28.752 8.59199 28.752H-7.51019e-06ZM3.74399 26.688H7.87199C8.54399 26.688 9.11999 26.592 9.59999 26.4C10.08 26.208 10.448 25.824 10.704 25.248C10.992 24.64 11.136 23.776 11.136 22.656V18.912C11.136 17.44 10.784 16.464 10.08 15.984C9.40799 15.504 8.54399 15.264 7.48799 15.264H3.74399V26.688ZM3.74399 12.864H7.39199C8.54399 12.864 9.42399 12.544 10.032 11.904C10.64 11.232 10.944 10.24 10.944 8.92801V5.76001C10.944 4.64001 10.656 3.82401 10.08 3.31201C9.53599 2.76801 8.86399 2.49601 8.06399 2.49601H3.74399V12.864ZM17.5755 28.752L23.5275 0.384013H28.5195L34.4235 28.752H30.3435L28.9995 22.512H22.7595L21.5115 28.752H17.5755ZM22.9035 20.592H28.9035L25.9275 4.41601L22.9035 20.592ZM43.7332 29.28C42.5812 29.28 41.5252 29.12 40.5652 28.8C39.6052 28.48 38.8212 27.84 38.2132 26.88C37.6372 25.888 37.3492 24.4 37.3492 22.416V6.33601C37.3492 4.60801 37.6692 3.29601 38.3092 2.40001C38.9492 1.47201 39.8132 0.848014 40.9012 0.528014C42.0212 0.176013 43.3012 1.23978e-05 44.7412 1.23978e-05C46.1812 1.23978e-05 47.4452 0.176013 48.5332 0.528014C49.6532 0.880013 50.5332 1.50401 51.1732 2.40001C51.8132 3.29601 52.1332 4.60801 52.1332 6.33601V10.08H48.5332V6.24001C48.5332 5.12001 48.3732 4.28801 48.0532 3.74401C47.7332 3.16801 47.2852 2.80001 46.7092 2.64001C46.1652 2.44801 45.5252 2.35201 44.7892 2.35201C44.0532 2.35201 43.3972 2.44801 42.8212 2.64001C42.2772 2.80001 41.8452 3.16801 41.5252 3.74401C41.2052 4.28801 41.0452 5.12001 41.0452 6.24001V23.136C41.0452 24.288 41.2052 25.152 41.5252 25.728C41.8452 26.272 42.2772 26.64 42.8212 26.832C43.3972 26.992 44.0532 27.072 44.7892 27.072C45.8772 27.072 46.7732 26.736 47.4772 26.064C48.1812 25.392 48.5332 24.416 48.5332 23.136V17.328H45.2212V15.12H52.1332V28.752H49.3492L49.1572 26.16C49.0612 26.352 48.9492 26.544 48.8212 26.736C48.7252 26.896 48.6292 27.04 48.5332 27.168C48.1172 27.776 47.5252 28.288 46.7572 28.704C45.9892 29.088 44.9812 29.28 43.7332 29.28ZM55.1269 28.752V26.256L62.8069 3.02401H55.6549V0.384013H67.0309V2.44801L59.1109 26.112H67.0309V28.752H55.1269ZM70.5937 28.752V0.384013H83.0737V3.02401H74.4817V12.528H81.4417V15.408H74.4817V26.16H83.0737V28.752H70.5937ZM86.9062 28.752V0.384013H90.6022V28.752H86.9062Z" fill="#1B1B1B"/>
</svg>
