<svg width="20" height="20" viewBox="0 0 20 20" fill="none" xmlns="http://www.w3.org/2000/svg">
<path d="M6.66669 9.175V9.16667M13.3334 9.175V9.16667M6.66669 6.66667V5.83333C6.66669 4.94928 7.01788 4.10143 7.643 3.47631C8.26812 2.85119 9.11597 2.5 10 2.5C10.8841 2.5 11.7319 2.85119 12.357 3.47631C12.9822 4.10143 13.3334 4.94928 13.3334 5.83333V6.66667M6.66669 6.66667H5.70024C4.83343 6.66667 4.11132 7.3311 4.03933 8.19492L3.48378 14.8616C3.4028 15.8333 4.16962 16.6667 5.14469 16.6667H14.8554C15.8304 16.6667 16.5972 15.8333 16.5163 14.8616L15.9607 8.19492C15.8887 7.3311 15.1666 6.66667 14.2998 6.66667H13.3334M6.66669 6.66667H13.3334" stroke="#1A1A1A" stroke-width="1.25" stroke-linecap="round" stroke-linejoin="round"/>
</svg>
