<svg width="27" height="20" viewBox="0 0 27 20" fill="none" xmlns="http://www.w3.org/2000/svg">
<path fill-rule="evenodd" clip-rule="evenodd" d="M-0.333313 0V20H26.3334V0H-0.333313Z" fill="#F50101"/>
<mask id="mask0_369_291" style="mask-type:luminance" maskUnits="userSpaceOnUse" x="-1" y="0" width="28" height="20">
<path fill-rule="evenodd" clip-rule="evenodd" d="M-0.333313 0V20H26.3334V0H-0.333313Z" fill="white"/>
</mask>
<g mask="url(#mask0_369_291)">
<path fill-rule="evenodd" clip-rule="evenodd" d="M-0.333313 0V6.66667H26.3334V0H-0.333313Z" fill="#F7FCFF"/>
<path fill-rule="evenodd" clip-rule="evenodd" d="M-0.333313 13.3333V20H26.3334V13.3333H-0.333313Z" fill="#5EAA22"/>
<rect x="-0.333313" width="10" height="20" fill="#F50101"/>
<path d="M8.51361 1.65424C8.55249 1.58875 8.64941 1.61837 8.64154 1.69427C8.58087 2.27916 8.36707 3.62916 7.64739 5.0849C7.66047 5.07162 7.68004 5.06447 7.70013 5.06439H9.45697C9.49699 5.06439 9.52923 5.09664 9.52923 5.13666V6.24213C9.52899 6.28194 9.49683 6.31439 9.45697 6.31439H7.70013C7.66041 6.31422 7.62811 6.28183 7.62786 6.24213V5.66107H7.40618C7.36414 5.75817 7.29042 5.83746 7.19915 5.89056C6.98231 6.23825 6.73578 6.58668 6.45013 6.92377C6.43794 6.93813 6.42431 6.95151 6.41204 6.96576C7.81183 8.43897 9.18147 9.4532 9.789 9.87494C9.85499 9.92074 9.81362 10.0209 9.73626 9.99994C8.98837 9.7942 7.26633 9.2186 5.74407 7.97552C5.54032 8.22365 5.24825 8.40809 4.82611 8.40814C4.80945 8.40813 4.7922 8.40721 4.77532 8.40716C3.2796 9.42691 1.71077 9.88846 1.11126 10.037C1.04029 10.0544 0.997552 9.96898 1.05169 9.91986C1.38749 9.6169 2.11642 8.95692 2.88958 8.25677C2.12251 8.10713 1.51098 7.8185 1.51068 7.2724C1.51068 6.3542 4.04051 6.57241 4.41204 6.60931C4.24585 6.39472 4.09333 6.17685 3.95208 5.95892C3.74958 5.95608 3.57611 5.83486 3.50091 5.66107H3.27923V6.24213C3.27899 6.28194 3.24683 6.31439 3.20697 6.31439H1.45013C1.41041 6.31422 1.37811 6.28183 1.37786 6.24213V5.13666C1.37786 5.09674 1.41026 5.06457 1.45013 5.06439H3.20697C3.24699 5.06439 3.27923 5.09664 3.27923 5.13666V5.164H3.48724C2.72264 3.70851 2.44407 2.34599 2.3515 1.73138C2.33987 1.65387 2.43884 1.62182 2.47845 1.68939C2.78476 2.21442 3.51013 3.3873 4.66986 4.89349L4.75286 4.22357C4.75735 4.22247 5.20794 4.11038 5.20794 3.74603V2.98236L4.45697 2.36127L5.45111 1.66693L6.39349 2.36127L5.70697 2.98236V3.74603C5.70697 3.74603 6.08681 4.0941 6.20599 4.22357V4.98529C7.45257 3.38844 8.21129 2.16779 8.51361 1.65424ZM3.95892 5.06439C3.73397 5.06459 3.55169 5.24514 3.55169 5.46771C3.55188 5.69013 3.73409 5.87084 3.95892 5.87103C4.18392 5.87103 4.36596 5.69025 4.36614 5.46771C4.36614 5.24502 4.18403 5.06439 3.95892 5.06439ZM6.94818 5.06439C6.72317 5.06452 6.54095 5.2451 6.54095 5.46771C6.54114 5.69017 6.72329 5.8709 6.94818 5.87103C7.17318 5.87103 7.35619 5.69025 7.35638 5.46771C7.35638 5.24502 7.17329 5.06439 6.94818 5.06439ZM7.60833 5.164H7.62786V5.13666C7.62786 5.13054 7.62936 5.12475 7.63079 5.11908C7.62335 5.13399 7.61588 5.14907 7.60833 5.164Z" fill="#F7FCFF"/>
</g>
</svg>
